<svg width="39" height="38" viewBox="0 0 39 38" fill="none" xmlns="http://www.w3.org/2000/svg">
<g clip-path="url(#clip0_348_8558)">
<path d="M29.3943 21.2325C28.1497 23.7547 26.4635 26.2675 24.7393 28.5238C23.1036 30.6508 21.3546 32.6884 19.5 34.6275C17.6453 32.6884 15.8964 30.6509 14.2608 28.5238C12.5365 26.2675 10.8503 23.7547 9.60575 21.2325C8.347 18.6841 7.625 16.2973 7.625 14.25C7.625 11.1006 8.87611 8.0801 11.1031 5.85311C13.3301 3.62611 16.3506 2.375 19.5 2.375C22.6494 2.375 25.6699 3.62611 27.8969 5.85311C30.1239 8.0801 31.375 11.1006 31.375 14.25C31.375 16.2973 30.6506 18.6841 29.3943 21.2325ZM19.5 38C19.5 38 33.75 24.4958 33.75 14.25C33.75 10.4707 32.2487 6.84612 29.5763 4.17373C26.9039 1.50133 23.2793 0 19.5 0C15.7207 0 12.0961 1.50133 9.42373 4.17373C6.75133 6.84612 5.25 10.4707 5.25 14.25C5.25 24.4958 19.5 38 19.5 38Z" fill="white"/>
<path d="M19.5 19C18.2402 19 17.032 18.4996 16.1412 17.6088C15.2504 16.718 14.75 15.5098 14.75 14.25C14.75 12.9902 15.2504 11.782 16.1412 10.8912C17.032 10.0004 18.2402 9.5 19.5 9.5C20.7598 9.5 21.968 10.0004 22.8588 10.8912C23.7496 11.782 24.25 12.9902 24.25 14.25C24.25 15.5098 23.7496 16.718 22.8588 17.6088C21.968 18.4996 20.7598 19 19.5 19ZM19.5 21.375C21.3897 21.375 23.2019 20.6243 24.5381 19.2881C25.8743 17.9519 26.625 16.1397 26.625 14.25C26.625 12.3603 25.8743 10.5481 24.5381 9.21186C23.2019 7.87567 21.3897 7.125 19.5 7.125C17.6103 7.125 15.7981 7.87567 14.4619 9.21186C13.1257 10.5481 12.375 12.3603 12.375 14.25C12.375 16.1397 13.1257 17.9519 14.4619 19.2881C15.7981 20.6243 17.6103 21.375 19.5 21.375Z" fill="white"/>
</g>
<defs>
<clipPath id="clip0_348_8558">
<rect width="38" height="38" fill="white" transform="translate(0.5)"/>
</clipPath>
</defs>
</svg>
